<?xml version="1.0" encoding="utf-8"?>
<!-- Generator: Adobe Illustrator 25.4.1, SVG Export Plug-In . SVG Version: 6.00 Build 0)  -->
<svg version="1.1" id="Layer_1" xmlns="http://www.w3.org/2000/svg" xmlns:xlink="http://www.w3.org/1999/xlink" x="0px" y="0px"
	 viewBox="0 0 200 200" style="enable-background:new 0 0 200 200;" xml:space="preserve">
<style type="text/css">
	.st0{fill-rule:evenodd;clip-rule:evenodd;}
	.st1{fill:none;stroke:#231F20;stroke-width:0.4998;stroke-miterlimit:22.9256;}
	.st2{fill:#231F20;}
</style>
<g>
	<path d="M91.882,115.063c-3.211-0.08-6.75,1.588-6.846,5.138l12.473-0.015C97.145,117.004,95.124,115.143,91.882,115.063z
		 M100.695,126.303c0.042-0.226,0.37-0.458,0.564-0.393l1.202,0.428c0.15,0.051,0.268,0.223,0.245,0.381
		c-0.601,4.234-5.257,8.796-10.794,8.796c-7.995,0-11.841-5.84-11.753-11.615c0.065-5.745,4.032-11.57,11.753-11.57
		c5.581,0,10.452,4.148,10.452,9.792c0,0.187-0.158,0.348-0.367,0.348H84.633c-0.644,5.067,2.754,10.449,7.314,10.449
		C98.846,132.919,100.695,126.315,100.695,126.303z"/>
	<path d="M126.673,123.965c0-6.402,5.409-11.623,12.095-11.623c2.884,0,5.52,0.957,7.6,2.56v-1.814c0-0.217,0.186-0.389,0.412-0.354
		l4.77,0.634c0.564,0.068,0.945,0.407,0.821,0.892c-0.102,0.317-0.375,0.594-0.697,0.707c-0.539,0.273-0.807,0.874-0.934,1.449
		c-0.118,0.582-0.104,1.094-0.104,1.094v15.721c0,13.416-17.081,12.715-21.382,6.693c-0.022,0-0.059-0.092,0-0.223l0.065-0.089
		c0.043-0.101,0.107-0.202,0.203-0.339c0.192-0.289,0.409-0.657,0.655-1.02c0.248-0.374,0.279-0.454,0.462-0.707
		c0.102-0.137,0.138-0.098,0.192-0.166c0.028-0.048,0.065-0.102,0.093-0.122c0.175-0.116,0.316,0.021,0.364,0.122
		c2.986,5.515,15.266,6.331,15.266-3.693V132.3c-2.063,1.668-4.876,3.107-7.786,3.107
		C132.082,135.407,126.673,130.377,126.673,123.965z M146.317,123.859c0-7.02-3.64-8.751-7.608-8.751
		c-3.877,0-7.173,3.791-7.173,8.685c0,4.891,3.296,8.709,7.173,8.709C142.665,132.502,146.317,130.436,146.317,123.859z"/>
	<path d="M40.405,118.126c-0.209,0.746-0.09,1.374-0.779,1.186c-0.451-0.136-0.784-0.686-0.976-1.085
		c-0.231-0.526-0.488-1.184-0.655-1.713c-0.088-0.303-0.152-0.547-0.172-0.731c-0.017-0.116-0.017-0.221-0.017-0.315
		c0.037-0.081,0.065-0.256,0.226-0.36c8.059-5.198,19.079-2.721,19.079,4.406c0,5.447-0.073,8.737,0.082,10.755
		c0.155,2.016,0.542,2.557,1.309,2.855c0.536,0.226,0.564,1.534-0.279,1.608h-4.419c-0.017,0-0.113-0.026-0.178-0.133
		c-0.037-0.033-0.042-0.069-0.054-0.119l-0.065-0.086c-0.144-0.265-0.144-0.553-0.209-0.794c-0.085-0.238-0.198-0.49-0.251-0.71
		c-4.532,4.49-16.164,3.987-16.164-3.75c0-4.859,4.23-6.735,8.178-7.422c1.998-0.345,3.984-0.425,5.494-0.41
		c0.734,0,1.352,0.018,1.792,0.018c0.201,0.018,0.79,0.018,0.903,0.018C53.25,112.268,41.641,113.921,40.405,118.126z
		 M53.036,123.653c-10.884-1.076-12.91,4.925-10.61,7.675C44.561,133.873,53.626,135.176,53.036,123.653z"/>
	<path d="M24.532,113.299c-0.291,0.229-0.596,0.179-0.85,0.012c-0.375-0.25-0.494-1.148-0.68-1.74
		c-2.949-6.028-16.982-4.764-16.418,1.379c0.161,1.657,1.998,3.096,3.852,3.78c0.928,0.342,2.035,0.613,3.146,0.859
		c1.171,0.232,2.41,0.449,3.652,0.687c4.854,0.963,10.026,1.974,10.026,7.734c0,11.486-19.172,11.382-26.932,6.25
		c-0.107-0.071-0.172-0.265-0.119-0.387l1.527-4.793c0.22-0.455,0.703-0.723,1.202-0.405c0.387,0.244,0.457,1.285,0.643,2.118
		c1.247,5.097,19.017,6.366,19.017-0.527c0-2.156-1.558-3.797-3.352-4.591c-0.9-0.41-1.97-0.711-3.13-0.976
		c-1.154-0.247-2.402-0.449-3.646-0.686c-4.966-0.91-10.323-2.182-10.323-8.45c0-8.615,13.872-11.323,23.882-5.653
		c0.124,0.08,0.192,0.27,0.155,0.398l-1.219,4.143C24.87,112.809,24.735,113.124,24.532,113.299z"/>
	<path d="M29.933,130.332v-20.271c-0.02-0.19-0.037-0.404-0.054-0.645c-0.042-0.214-0.102-0.417-0.198-0.621
		c-0.172-0.39-0.528-0.779-1.309-1.068c-0.985-0.342-0.189-1.793,0.406-1.832c0.446-0.012,0.92-0.152,1.439-0.324
		c0.522-0.187,1.064-0.404,1.521-0.576c0.477-0.167,0.954-0.321,1.304-0.321c0.457,0.023,0.796,0.306,0.796,0.886v24.828
		c0.054,1.216,0.226,2.397,1.084,2.582c0.327,0.059,0.649,0.362,0.768,0.701c0.147,0.47-0.138,0.859-0.686,0.999l-0.065,0.015
		h-5.912c-0.624,0-0.999-0.292-0.968-0.747c0.028-0.404,0.381-0.779,0.844-0.951C29.493,132.767,29.933,131.533,29.933,130.332z"/>
	<path d="M181.142,130.284c0.054,1.264,0.237,2.472,1.106,2.659c0.345,0.08,0.683,0.369,0.807,0.714
		c0.161,0.484-0.147,0.892-0.694,1.029l-0.065,0.021h-5.729c-0.629,0-1.027-0.297-0.993-0.768c0.011-0.386,0.37-0.794,0.863-0.981
		c0.725-0.268,1.064-1.505,1.095-2.742l0.113-12.436c-0.025-0.205-0.037-0.419-0.073-0.66c-0.039-0.214-0.093-0.44-0.189-0.657
		c-0.192-0.389-0.542-0.797-1.38-1.091c-0.745-0.264-0.578-1.597,0.311-1.617c0.451-0.036,0.968-0.167,1.49-0.357
		c0.573-0.185,1.101-0.417,1.594-0.589c0.472-0.178,0.977-0.327,1.352-0.327c0.462,0.014,0.392,0.309,0.392,0.886l-0.053,2.757
		c0.291-0.405,1.101-1.374,1.558-1.814c1.183-1.157,3.008-2.203,5.542-1.704c0.22,0.047,0.316,0.25,0.268,0.455l-1.123,3.809
		c-0.048,0.184-0.268,0.3-0.454,0.22c-5.269-2.218-5.749,4.586-5.737,4.859V130.284z"/>
	<path d="M104.699,130.739v-10.851c0-2.001-0.407-3.035-0.762-3.547c-0.172-0.268-0.364-0.404-0.477-0.485
		c-0.048-0.015-0.071-0.036-0.088-0.05c-0.387-0.024-0.739-0.339-0.864-0.663c-0.144-0.535,0.263-0.949,0.94-1.073l4.721-1.279
		c0.285-0.068,0.499,0.131,0.435,0.405c-0.108,0.646-0.065,2.15-0.028,2.807c3.471-5.676,15.983-5.01,15.983,5.659v9.078
		c0,0.086-0.011,0.274,0,0.512c0.02,0.217,0.02,0.484,0.085,0.738c0.082,0.544,0.31,0.901,0.649,0.999
		c0.534,0.158,0.872,0.547,0.951,0.939c0.054,0.432-0.225,0.874-0.784,0.874h-5.912c-0.564,0-0.928-0.392-0.875-0.874
		c0.065-0.428,0.435-0.802,0.982-0.939c0.22-0.045,0.392-0.11,0.564-0.348c0.172-0.274,0.364-0.833,0.364-1.915
		c0,0,0.153-4.237,0-9.048c-0.333-8.614-11.496-8.499-12.007,0v9.063c-0.037,1.047,0.152,1.573,0.356,1.856
		c0.172,0.261,0.386,0.348,0.575,0.413c0.72,0.223,0.948,0.591,0.929,1.017c-0.017,0.494-0.322,0.817-1.064,0.776h-5.554
		c-1.34,0.036-1.749-1.237-0.245-1.793C103.979,132.856,104.699,131.771,104.699,130.739z"/>
	<path d="M79.364,113.564c0.054,0.339-0.102,0.716-0.203,0.853l-13.28,18.317c2.077,0.032,4.93,0.092,7.131-0.182
		c2.421-0.339,4.467-1.611,5.435-3.455c0.37-0.708,0.906-0.984,1.338-0.743c0.412,0.223,0.561,0.785,0.412,1.365
		c-0.564,1.936-1.552,4.731-1.552,4.731c-0.048,0.134-0.198,0.235-0.345,0.235H60.5c-0.059,0-0.155,0-0.243-0.015
		c-0.107,0-0.279-0.024-0.412-0.14c-0.375-0.252-0.316-0.689-0.113-1.118l13.554-18.46c-1.885-0.05-4.495-0.145-6.434,0.087
		c-2.125,0.253-3.79,1.409-4.656,3.181c-0.257,0.512-0.788,0.714-1.228,0.651c-0.468-0.059-0.909-0.434-0.784-1.035
		c0.381-1.915,1.535-4.775,1.535-4.775c0.031-0.111,0.209-0.241,0.35-0.241h16.285C78.972,112.791,79.322,113.124,79.364,113.564z"
		/>
	<rect x="36.968" y="105.625" width="151.403" height="2.073"/>
	<rect x="151.983" y="140.189" width="36.231" height="2.084"/>
	<rect x="1.468" y="140.189" width="124.198" height="2.084"/>
	<path d="M164.36,115.063c-3.225-0.08-6.775,1.588-6.857,5.138l12.492-0.015C169.603,117.004,167.588,115.143,164.36,115.063z
		 M173.147,126.303c0.059-0.226,0.375-0.458,0.601-0.393l1.196,0.428c0.13,0.051,0.237,0.223,0.22,0.381
		c-0.607,4.234-5.235,8.796-10.788,8.796c-8,0-11.818-5.84-11.759-11.615c0.073-5.745,4.063-11.57,11.759-11.57
		c5.59,0,10.45,4.148,10.45,9.792c0,0.187-0.166,0.348-0.359,0.348H157.11c-0.643,5.067,2.746,10.449,7.289,10.449
		C171.305,132.919,173.147,126.315,173.147,126.303z"/>
	<path d="M169.152,63.318c-14.753,1.511-21.164-0.91-36.854-2.028c-15.659-1.13-29.788-0.146-43.627-0.202
		c-28.487-0.167-43.7-3.86-43.7-3.86l-0.313-1.273l-1.944,0.749c0,0-6.685,2.638-8.398,4.092c-1.724,1.46-3.759,5.067-4.501,6.786
		c-0.751,1.733-1.137,3.904-1.137,3.904l2.627,2.507c0,0-0.409-1.207,2.184-2.724c1.826-1.077,3.008-0.122,3.319,0.91
		c0.322,1.032,0.446,1.829-0.951,2.518c-1.386,0.684-3.522,0.634-3.522,0.634s1.606,2.391,5.418,2.052
		c0.815-0.063,5.709-2.224,7.179-3.107c0.784-0.49,3.691,5.92,3.711,8.154c0.023,3.44-4.05,9.75-16.903,12.129
		c-12.84,2.363-13.892,2.093-17.744,3.642c-3.849,1.532-5.438,2.754-5.52,3.643c-0.017,0.122,14.053,1.278,14.053,1.278
		c3.045-0.717,10.794-2.046,16.985-3.797c8.694-2.441,31.318-12.019,43.449-15.73c11.482-3.521,19.864-4.606,29.55-3.993
		c12.589,0.812,13.475,4.41,21.658,7.497c9.146,3.455,15.343,2.777,23.509,6.384c6.46,2.846,11.186,4.891,16.954,7.11
		c5.858,2.263,10.272,2.863,10.337,1.091c0.065-1.885-1.849-0.651-5.788-3.694c-3.561-2.744-17.75-11.917-22.688-14.246
		c-4.834-2.281-4.501-1.389-7.89-4.199c-4.456-3.744-15.771-11.226-15.594-14.089c0.065-0.916,18.359,1.52,28.354,1.591
		c13.633,0.104,22.177-5.67,23.89-6.75c0.994-0.604,0.596-1.951-0.285-1.415C184,59.447,177.684,62.444,169.152,63.318z"/>
	<g>
		<path d="M192.598,141.401v-3.676h-1.343v-0.867h3.826v0.867h-1.343v3.676H192.598z"/>
		<path d="M200.191,141.401h-1.135v-3.011l-0.827,1.944h-0.778l-0.827-1.944v3.011h-1.074v-4.543h1.315l1.007,2.243l1.004-2.243
			h1.315V141.401z"/>
	</g>
</g>
</svg>
