<?xml version="1.0" encoding="utf-8"?>
<!-- Generator: Adobe Illustrator 25.4.1, SVG Export Plug-In . SVG Version: 6.00 Build 0)  -->
<svg version="1.1" id="Layer_1" xmlns="http://www.w3.org/2000/svg" xmlns:xlink="http://www.w3.org/1999/xlink" x="0px" y="0px"
	 viewBox="0 0 200 200" style="enable-background:new 0 0 200 200;" xml:space="preserve">
<style type="text/css">
	.st0{fill-rule:evenodd;clip-rule:evenodd;}
	.st1{fill:none;stroke:#231F20;stroke-width:0.4998;stroke-miterlimit:22.9256;}
	.st2{fill:#231F20;}
</style>
<path d="M149.959,156.399c0-1.175-0.272-3.03,2.04-3.03h3.943c2.33,0,2.077,1.855,2.077,3.03c0,1.315,0.064,3.283-1.726,3.283
	h-4.657C149.845,159.681,149.959,157.713,149.959,156.399 M145.821,156.316c0,2.609-0.155,6.632,3.373,6.632h9.378
	c3.578,0,3.406-4.022,3.406-6.632c0-2.374,0.285-6.161-4.15-6.161h-7.84C145.57,150.188,145.821,153.927,145.821,156.316z
	 M124.914,151.148v10.876c0,0.353-0.061,0.89,0.745,0.89h2.155c0.759,0,0.715-0.536,0.715-0.89v-7.913
	c1.488,2.861,3.688,7.221,4.479,8.803h3.312c0.825-1.581,3.011-5.942,4.514-8.803v7.913c0,0.353-0.062,0.89,0.73,0.89h2.168
	c0.793,0,0.682-0.536,0.682-0.89v-10.876c0-0.371,0.079-0.925-0.682-0.925h-3.707c-0.619,0-1.394-0.137-2.267,1.748
	c-0.663,1.517-2.105,4.647-3.103,6.313c-0.965-1.667-2.374-4.796-3.04-6.313c-0.887-1.885-1.681-1.748-2.233-1.748h-3.724
	C124.871,150.223,124.914,150.778,124.914,151.148z M112.548,154.111c0-0.252-0.035-0.537,0.758-0.537c0.903,0,4.736,0,4.736,0
	c1.652,0,1.743,0.217,1.743,1.532c0,0.656,0,1.277-2.361,1.277c-1.871,0-4.876,0-4.876,0V154.111z M108.587,151.317v11.175
	c0,0.455,0.491,0.421,0.316,0.421h3.136c0.155,0,0.584-0.067,0.584-0.519v-5.271c0,0,0.858,1.816,1.301,2.627c0,0,4.243,0,4.59,0
	c0.318,0,1.14-0.069,1.14,1.498c0,0.57-0.155,1.665,0.493,1.665h3.122c0.187,0,0.425,0.018,0.425-0.673
	c0-1.347,0.255-3.956-1.663-4.31c1.14-0.823,1.681-0.959,1.681-3.635c0-4.091-2.078-4.072-3.501-4.072h-10.647
	C109.108,150.223,108.587,150.525,108.587,151.317z M96.674,157.627c0.126-0.285,1.789-3.484,1.961-3.804l0.19-0.018
	c0.161,0.338,1.742,3.537,1.87,3.822l-0.192,0.187h-3.659L96.674,157.627z M96.293,150.306c0,0-5.623,10.757-6.446,12.406v0.27
	h4.036c0.554-0.994,2.171-4.259,2.471-4.781c0.239,0.556,1.062,2.562,1.062,2.562h4.893l1.156,2.22h4.026v-0.421
	c-0.809-1.549-4.675-8.968-5.229-10.184c-0.823-1.7-1.582-2.071-2.36-2.071H96.293z M70.413,154.111
	c0-0.252-0.032-0.537,0.759-0.537c0.904,0,4.736,0,4.736,0c1.648,0,1.744,0.217,1.744,1.532c0,0.656,0,1.277-2.363,1.277
	c-1.87,0-4.876,0-4.876,0V154.111z M66.451,151.317v11.175c0,0.455,0.493,0.421,0.318,0.421h3.137c0.16,0,0.586-0.067,0.586-0.519
	v-5.271c0,0,0.855,1.816,1.299,2.627c0,0,4.243,0,4.596,0c0.315,0,1.136-0.069,1.136,1.498c0,0.57-0.158,1.665,0.493,1.665h3.122
	c0.19,0,0.426,0.018,0.426-0.673c0-1.347,0.251-3.956-1.663-4.31c1.141-0.823,1.678-0.959,1.678-3.635
	c0-4.091-2.075-4.072-3.499-4.072H67.437C66.973,150.223,66.451,150.525,66.451,151.317z M51.677,152.915c0,0,0,5.639,0,7.004
	c0,2.793,1.644,3.062,2.484,3.062c0.271,0,10.105,0,10.105,0c0.793,0,0.729-0.573,0.729-1.599c0-0.958,0.064-1.549-0.729-1.549
	c0,0-7.712,0-7.983,0c-0.187,0-0.838,0.152-0.838-0.624c0-0.605,0-3.333,0-3.333l1.094,2.258c0,0,6.399,0,7.032,0
	c0.604,0,0.618-0.288,0.458-0.59c-0.111-0.339-1.091-2.321-1.091-2.321h-6.796c-0.776,0-0.633-0.306-0.633-1.08
	c0-0.774,0.698-0.655,0.902-0.655c0.268,0,7.682,0,7.682,0c0.84,0,0.715-0.555,0.715-1.549c0-1.06,0.108-1.633-0.715-1.633
	c0,0-9.472,0-9.725,0C52.039,150.306,51.677,152.191,51.677,152.915z M44.426,153.607c1.266,0,2.057,0.118,2.057,3.112
	c0,0.891,0.146,2.844-1.777,2.844c-1.944,0-6.303,0-6.303,0v-5.956H44.426z M45.266,150.223H34.715v12.69h3.724v-2.659l1.232,2.659
	c0,0,4.534,0,5.69,0c5.386,0,4.879-3.011,4.879-7.945C50.238,150.137,45.914,150.223,45.266,150.223z M15.439,157.829v-6.681
	c0-0.371,0.079-0.944-0.776-0.944h-2.36c-0.759,0-0.712,0.573-0.712,0.944c0,0,0,6.194,0,6.681c0,0.472-0.096,1.753-1.71,1.753
	H5.953c-1.649,0-1.73-1.281-1.73-1.753c0-0.487,0-6.681,0-6.681c0-0.371,0.049-0.944-0.71-0.944H1.168
	c-0.806,0-0.776,0.537-0.776,0.944v6.681c0,1.416,0.081,5.084,4.61,5.084h5.813C15.36,162.913,15.439,159.245,15.439,157.829z
	 M25.891,154.481c-1.123-1.7-2.836-4.277-4.039-4.277h-4.26c-0.727,0-0.695,0.573-0.695,0.944v10.876c0,0.353-0.096,0.89,0.695,0.89
	h2.186c0.793,0,0.712-0.536,0.712-0.89v-8.13c2.328,3.045,4.61,5.925,6.209,8.214c0.855,0.874,1.267,0.806,2.203,0.806
	c0.904,0,3.817,0,4.371,0v-11.765c0-0.371,0.047-0.944-0.712-0.944h-2.378c-0.791,0-0.744,0.573-0.744,0.944v8.044
	C28.363,157.728,26.764,155.775,25.891,154.481z M120.654,87.398c-5.59,3.727-13.222,6.168-22.587,6.168l-0.295,0.005h-0.01
	l-0.296-0.005c-9.356,0-16.979-2.436-22.568-6.155c5.59-3.726,13.219-6.166,22.585-6.166l0.295-0.005h0.01l0.296,0.005
	C107.44,81.245,115.066,83.681,120.654,87.398z M143.185,87.401c15.797-7.385,26.111-18.471,26.673-30.774
	c0,0-4.164-3.416-17.63-8.677c-11.825-4.622-20.843-5.684-20.843-5.684l0.039,27.416c0,4.098-1.55,8.284-4.475,11.987
	c-8.937-2.295-18.802-3.59-29.161-3.592h-0.007c-10.369,0.002-20.247,1.297-29.191,3.6c-2.932-3.706-4.484-7.895-4.484-11.995
	l0.039-27.416c0,0-9.016,1.062-20.843,5.684c-13.463,5.26-17.63,8.677-17.63,8.677c0.562,12.308,10.886,23.4,26.695,30.784
	c-15.799,7.386-26.116,18.473-26.673,30.773c0,0,4.162,3.415,17.625,8.679c11.83,4.622,20.845,5.681,20.845,5.681l-0.039-27.413
	c0-4.098,1.549-8.287,4.477-11.987c8.937,2.295,18.8,3.588,29.159,3.592h0.007c10.371-0.004,20.249-1.302,29.194-3.599
	c2.932,3.703,4.482,7.892,4.482,11.995l-0.04,27.413c0,0,9.016-1.059,20.843-5.681c13.463-5.264,17.628-8.679,17.628-8.679
	C169.319,105.877,158.992,94.785,143.185,87.401z M178.319,157.829v-6.681c0-0.371,0.084-0.944-0.773-0.944h-2.36
	c-0.762,0-0.71,0.573-0.71,0.944c0,0,0,6.194,0,6.681c0,0.472-0.099,1.753-1.715,1.753h-3.928c-1.649,0-1.726-1.281-1.726-1.753
	c0-0.487,0-6.681,0-6.681c0-0.371,0.045-0.944-0.713-0.944h-2.346c-0.805,0-0.773,0.537-0.773,0.944v6.681
	c0,1.416,0.079,5.084,4.607,5.084h5.815C178.24,162.913,178.319,159.245,178.319,157.829z M191.053,155.105
	c0,0.656,0,1.277-2.358,1.277c-1.87,0-4.876,0-4.876,0v-2.271c0-0.252-0.035-0.537,0.759-0.537c0.902,0,4.736,0,4.736,0
	C190.959,153.573,191.053,153.79,191.053,155.105z M194.983,154.295c0-4.091-2.075-4.072-3.502-4.072h-10.644
	c-0.459,0-0.981,0.302-0.981,1.094v11.175c0,0.455,0.493,0.421,0.318,0.421h3.134c0.158,0,0.587-0.067,0.587-0.519v-5.271
	c0,0,0.858,1.816,1.301,2.627c0,0,4.243,0,4.59,0c0.318,0,1.141-0.069,1.141,1.498c0,0.57-0.158,1.665,0.492,1.665h3.122
	c0.187,0,0.426,0.018,0.426-0.673c0-1.347,0.254-3.956-1.664-4.31C194.446,157.108,194.983,156.972,194.983,154.295z
	 M198.763,160.035c0,0.152-0.054,0.242-0.367,0.242c-0.318,0-0.616,0-0.616,0V159.7c0,0,0.298,0,0.616,0
	c0.313,0,0.367,0.112,0.367,0.296V160.035z M199.287,160.073c0-0.391-0.246-0.783-0.702-0.783h-0.963
	c-0.263,0-0.298,0.073-0.298,0.372v2.013l0.177,0.339c0.104,0,0.299-0.022,0.299-0.263v-0.895h0.332c0.192,0.3,0.367,0.67,0.648,1.1
	c0.072,0.075,0.542,0,0.367-0.336c-0.123-0.222-0.295-0.579-0.421-0.82C199.112,160.799,199.287,160.485,199.287,160.073z
	 M199.867,160.558c0,1.024-0.7,1.808-1.683,1.808c-0.963,0-1.72-0.784-1.72-1.808c0-0.932,0.811-1.751,1.668-1.751
	C199.147,158.807,199.867,159.553,199.867,160.558z M200.391,160.558c0-1.286-0.963-2.312-2.208-2.312
	c-1.104,0-2.193,1.025-2.193,2.312c0,1.285,0.929,2.384,2.141,2.384C199.393,162.941,200.391,161.843,200.391,160.558z"/>
</svg>
