<?xml version="1.0" encoding="utf-8"?>
<!-- Generator: Adobe Illustrator 25.4.1, SVG Export Plug-In . SVG Version: 6.00 Build 0)  -->
<svg version="1.1" id="Layer_1" xmlns="http://www.w3.org/2000/svg" xmlns:xlink="http://www.w3.org/1999/xlink" x="0px" y="0px"
	 viewBox="0 0 200 200" style="enable-background:new 0 0 200 200;" xml:space="preserve">
<style type="text/css">
	.st0{fill-rule:evenodd;clip-rule:evenodd;}
	.st1{fill:none;stroke:#231F20;stroke-width:0.4998;stroke-miterlimit:22.9256;}
	.st2{fill:#231F20;}
</style>
<g>
	<polyline class="st0" points="79.813,166.399 79.813,131.793 88.737,131.793 88.737,166.399 79.813,166.399 	"/>
	<polyline class="st0" points="88.533,128.893 79.813,128.893 79.813,120.326 88.533,120.326 88.533,128.893 	"/>
	<path d="M28.029,131.418v2.64c-1.798-1.862-6.537-3.385-10.478-3.204C6.724,131.352,0,138.774,0,149.686
		c0,6.396,5.576,17.183,17.061,17.582c3.37,0.117,9.082-0.999,10.967-2.963v2.071h8.773v-34.959L28.029,131.418z M24.945,155.898
		c-1.881,1.915-4.06,2.874-6.527,2.874c-2.697,0-4.991-0.957-6.852-2.866c-1.861-1.901-2.797-4.275-2.798-7.091
		c0,0.001,0,0.002,0,0.003v-0.006c0,0.001,0,0.002,0,0.003c0.001-2.682,0.937-4.96,2.797-6.821c1.861-1.855,4.122-2.785,6.752-2.785
		c2.568,0,4.794,0.978,6.656,2.934c1.86,1.947,2.798,4.295,2.798,7.026C27.771,151.732,26.828,153.983,24.945,155.898z"/>
	<path class="st0" d="M158.517,131.418v2.64c-1.8-1.862-6.537-3.385-10.479-3.204c-10.825,0.498-17.55,7.92-17.55,18.832
		c0,6.396,5.576,17.183,17.061,17.582c3.37,0.117,9.083-0.999,10.968-2.963v2.071h8.772v-34.957H158.517z M155.434,155.898
		c-1.882,1.915-4.061,2.874-6.528,2.874c-2.696,0-4.991-0.959-6.852-2.866c-1.859-1.901-2.797-4.275-2.798-7.091
		c0,0.001,0,0.002,0,0.003v-0.006c0,0.001,0,0.002,0,0.003c0.001-2.682,0.939-4.96,2.798-6.821c1.862-1.855,4.122-2.785,6.752-2.785
		c2.568,0,4.794,0.978,6.657,2.934c1.862,1.947,2.798,4.295,2.798,7.026C158.26,151.732,157.314,153.983,155.434,155.898z"/>
	<path class="st0" d="M67.299,120.156v13.902c-1.799-1.862-6.538-3.385-10.479-3.204c-10.826,0.499-17.55,7.92-17.55,18.832
		c0,6.396,5.577,17.183,17.062,17.582c3.369,0.117,9.081-0.999,10.967-2.963v2.071h8.773v-46.219H67.299z M64.215,155.898
		c-1.882,1.915-4.061,2.874-6.528,2.874c-2.697,0-4.991-0.959-6.852-2.866c-1.86-1.901-2.799-4.275-2.8-7.091
		c0,0.001,0,0.002,0,0.003v-0.006c0,0.001,0,0.002,0,0.003c0.001-2.682,0.939-4.96,2.8-6.821c1.861-1.855,4.12-2.785,6.75-2.785
		c2.569,0,4.794,0.978,6.656,2.934c1.862,1.947,2.8,4.295,2.8,7.026C67.041,151.732,66.097,153.983,64.215,155.898z"/>
	<path class="st0" d="M119.452,120.156v13.902c-1.799-1.862-6.537-3.385-10.48-3.204c-10.825,0.498-17.549,7.92-17.549,18.832
		c0,6.396,5.577,17.183,17.061,17.582c3.37,0.117,9.081-0.999,10.968-2.963v2.071h8.773v-46.219H119.452z M116.369,155.898
		c-1.881,1.915-4.06,2.874-6.529,2.874c-2.698,0-4.99-0.96-6.852-2.866c-1.861-1.901-2.797-4.275-2.798-7.091
		c0,0.001,0,0.002,0,0.003v-0.006c0,0.001,0,0.002,0,0.003c0.001-2.682,0.937-4.96,2.798-6.821c1.862-1.855,4.122-2.785,6.752-2.785
		c2.569,0,4.792,0.978,6.657,2.934c1.862,1.949,2.798,4.295,2.798,7.026C119.195,151.732,118.25,153.983,116.369,155.898z"/>
	<path class="st0" d="M189.568,143.045h8.798c-0.888-9.691-8.121-11.522-14.32-11.661c-5.763-0.129-14.422,2.885-14.378,11.262
		c0.043,7.53,6.663,10.107,14.583,10.853c2.216,0.208,5.728,0.46,5.932,3.073c0.266,3.401-3.534,3.671-5.319,3.683
		c-3.893,0.031-6.39-2.382-6.39-3.481v-2.188h-9.361l0.072,2.107c0.217,6.372,8.575,10.804,16.089,10.526
		c6.388-0.237,14.738-2.367,14.725-12.287c-0.012-8.099-8.665-9.511-14.317-10.236c-2.438-0.662-6.873-0.357-6.799-3.349
		c0.062-2.464,3.058-2.915,5.162-2.999C186.478,138.248,189.383,138.165,189.568,143.045"/>
	<path class="st0" d="M91.118,50.12l30.636-17.396l50.982,88.123h-41.609L91.118,50.12 M21.616,110.318l30.407-17.624l16.004,28.153
		H26.646L21.616,110.318 M56.596,80.563L87.46,62.938l32.923,57.91H79.459L56.596,80.563"/>
</g>
</svg>
